<svg width="69" height="69" viewBox="0 0 69 69" fill="none" xmlns="http://www.w3.org/2000/svg">
<path fill-rule="evenodd" clip-rule="evenodd" d="M36.3001 43.8859C37.9273 43.9005 39.541 43.5924 41.0472 42.9794C42.5533 42.3664 43.9216 41.4609 45.0721 40.3159C46.2227 39.1708 47.1324 37.809 47.7482 36.3102C48.364 34.8113 48.6736 33.2054 48.6587 31.5861V31.001C49.4811 30.3779 50.1966 29.6263 50.7774 28.7754C49.988 29.1168 49.1567 29.353 48.3052 29.4777C49.1806 28.9307 49.8442 28.1049 50.1881 27.1348C49.3378 27.606 48.4274 27.9606 47.4815 28.189C47.0831 27.7428 46.5934 27.3866 46.0453 27.1443C45.4971 26.902 44.9032 26.7793 44.3035 26.7843C43.1538 26.8016 42.0562 27.2638 41.2431 28.0729C40.4301 28.8819 39.9657 29.9743 39.9483 31.1183C39.9215 31.4354 39.9617 31.7545 40.0661 32.0552C38.3339 31.972 36.6396 31.5214 35.0967 30.7335C33.5538 29.9455 32.1979 28.8385 31.1199 27.4866C30.7326 28.1649 30.5299 28.9321 30.532 29.7123C30.5475 30.4203 30.7252 31.1155 31.0515 31.7448C31.3778 32.3741 31.8442 32.9211 32.415 33.344C31.7076 33.3298 31.0168 33.1278 30.4142 32.7589C30.4131 33.7622 30.766 34.734 31.4115 35.5046C32.057 36.2753 32.9539 36.796 33.9457 36.9757C33.5624 37.0786 33.1648 37.1182 32.7686 37.093C32.4888 37.1117 32.2082 37.0717 31.9449 36.9757C32.2327 37.8438 32.7829 38.6022 33.5203 39.1473C34.2576 39.6924 35.1462 39.9975 36.0644 40.021C34.5171 41.2237 32.6132 41.8826 30.6499 41.8948C30.2927 41.9139 29.9348 41.8742 29.5905 41.7775C31.5384 43.1852 33.8931 43.9251 36.3001 43.8859Z" fill="#0E2368"/>
</svg>
