<svg width="10" height="13" viewBox="0 0 10 13" fill="none" xmlns="http://www.w3.org/2000/svg">
<path fill-rule="evenodd" clip-rule="evenodd" d="M0.558107 0.351202C0.00513666 0.60082 -0.175258 1.23615 0.19166 1.64189C0.293975 1.75507 1.87433 2.92023 3.70364 4.23115L7.02958 6.61469L3.7027 8.99851C1.87301 10.3096 0.292561 11.475 0.190718 11.5882C0.0711464 11.7211 0.00532551 11.9122 0.00494831 12.1279C0.00438252 12.4246 0.0451198 12.4914 0.370358 12.7281C0.70446 12.9711 0.780652 12.9944 1.24149 12.9944H1.74647L5.87319 9.99246L10 6.9906V6.64659C10 6.44307 9.93701 6.23331 9.84582 6.13302C9.62242 5.88717 2.47747 0.670444 2.04115 0.434545C1.61228 0.202625 0.967365 0.166407 0.558107 0.351202Z" fill="#AFAFAF"/>
</svg>
