<svg width="10" height="16" viewBox="0 0 10 16" fill="none" xmlns="http://www.w3.org/2000/svg">
<path fill-rule="evenodd" clip-rule="evenodd" d="M9.44189 15.8523C9.99486 15.5393 10.1753 14.7427 9.80834 14.234C9.70603 14.0921 8.12567 12.6312 6.29636 10.9875L2.97042 7.99899L6.2973 5.01011C8.12699 3.36619 9.70744 1.90503 9.80928 1.76312C9.92885 1.59653 9.99467 1.35683 9.99505 1.08643C9.99562 0.714453 9.95488 0.630597 9.62964 0.333876C9.29554 0.0291563 9.21935 -8.30473e-08 8.75851 -8.30473e-08H8.25353L4.12681 3.76388L3.60678e-07 7.52768V7.959C3.60678e-07 8.21418 0.0629931 8.47719 0.15418 8.60293C0.377575 8.91117 7.52253 15.452 7.95885 15.7478C8.38772 16.0386 9.03263 16.084 9.44189 15.8523Z" fill="#424961"/>
</svg>
