<svg width="10" height="14" viewBox="0 0 10 14" fill="none" xmlns="http://www.w3.org/2000/svg">
<path fill-rule="evenodd" clip-rule="evenodd" d="M0.558107 0.553594C0.00513666 0.803212 -0.175258 1.43854 0.19166 1.84428C0.293975 1.95746 1.87433 3.12262 3.70364 4.43354L7.02958 6.81709L3.7027 9.2009C1.87301 10.512 0.292561 11.6774 0.190718 11.7906C0.0711464 11.9234 0.00532551 12.1146 0.00494831 12.3303C0.00438252 12.627 0.0451198 12.6938 0.370358 12.9305C0.70446 13.1735 0.780652 13.1968 1.24149 13.1968H1.74647L5.87319 10.1948L10 7.19299V6.84898C10 6.64546 9.93701 6.4357 9.84582 6.33541C9.62242 6.08957 2.47747 0.872836 2.04115 0.636938C1.61228 0.405017 0.967365 0.368799 0.558107 0.553594Z" fill="#424961"/>
</svg>
