<svg width="21" height="21" viewBox="0 0 21 21" fill="none" xmlns="http://www.w3.org/2000/svg">
<path fill-rule="evenodd" clip-rule="evenodd" d="M10.5 1.88429C11.8981 1.83185 13.2982 1.87079 14.6913 2.00086C15.367 1.99257 16.0383 2.11119 16.6703 2.35056C17.5423 2.75691 18.243 3.45767 18.6494 4.3296C18.8888 4.96158 19.0074 5.63288 18.9991 6.30863C18.9991 7.35643 19.1157 7.70613 19.1157 10.4998C19.1681 11.8979 19.1292 13.298 18.9991 14.691C19.0074 15.3668 18.8888 16.0381 18.6494 16.6701C18.243 17.542 17.5423 18.2427 16.6703 18.6491C16.0383 18.8885 15.367 19.0071 14.6913 18.9988C13.6435 18.9988 13.2937 19.1154 10.5 19.1154C9.10186 19.1678 7.70179 19.1289 6.30873 18.9988C5.63297 19.0071 4.96166 18.8885 4.32967 18.6491C3.45772 18.2427 2.75696 17.542 2.3506 16.6701C2.11122 16.0381 1.9926 15.3668 2.00089 14.691C2.00089 13.6432 1.88432 13.2935 1.88432 10.4998C1.83188 9.10171 1.87082 7.70167 2.00089 6.30863C1.9926 5.63288 2.11122 4.96158 2.3506 4.3296C2.55372 3.89783 2.82926 3.50402 3.16528 3.16523C3.43816 2.7579 3.85348 2.46732 4.32967 2.35056C4.96166 2.11119 5.63297 1.99257 6.30873 2.00086C7.70179 1.87079 9.10186 1.83185 10.5 1.88429V1.88429ZM10.5 0.0218263C9.06303 -0.0293865 7.62426 0.00954584 6.19216 0.138394C5.31744 0.136291 4.44969 0.293861 3.63156 0.603356C2.92509 0.833851 2.28569 1.23358 1.76906 1.76772C1.23425 2.28457 0.834049 2.92444 0.603365 3.6315C0.238156 4.43317 0.078357 5.31317 0.138396 6.19206C0.009546 7.62414 -0.0293869 9.06288 0.0218267 10.4998C-0.0293869 11.9368 0.009546 13.3755 0.138396 14.8076C0.136553 15.6828 0.294571 16.551 0.604675 17.3695C0.835174 18.0759 1.23491 18.7153 1.76906 19.2319C2.28569 19.7661 2.92509 20.1658 3.63156 20.3963C4.45002 20.7064 5.31823 20.8644 6.19347 20.8626C7.62516 20.9909 9.06349 21.0294 10.5 20.9778C11.937 21.029 13.3757 20.9901 14.8078 20.8613C15.6831 20.8631 16.5513 20.7051 17.3698 20.395C18.071 20.1534 18.708 19.7553 19.2325 19.2308C19.7569 18.7064 20.155 18.0694 20.3966 17.3682C20.7067 16.5497 20.8648 15.6815 20.8629 14.8063C20.8616 13.6432 20.9782 13.2935 20.9782 10.4998C21.0294 9.06288 20.9905 7.62414 20.8616 6.19206C20.8634 5.31684 20.7054 4.44864 20.3953 3.63019C20.1648 2.92373 19.7651 2.28435 19.2309 1.76772C18.7143 1.23358 18.0749 0.833851 17.3684 0.603356C16.5503 0.293861 15.6826 0.136291 14.8078 0.138394C13.3757 0.00954584 11.937 -0.0293865 10.5 0.0218263V0.0218263ZM10.5 5.14426C9.79346 5.13257 9.09179 5.26311 8.43673 5.52812C7.78167 5.79312 7.18661 6.18717 6.68694 6.68683C6.18727 7.18649 5.79321 7.78154 5.5282 8.43659C5.2632 9.09164 5.13265 9.7933 5.14434 10.4998C5.14434 11.5591 5.45845 12.5945 6.04693 13.4752C6.63542 14.3559 7.47186 15.0424 8.45048 15.4477C9.4291 15.8531 10.5059 15.9591 11.5448 15.7525C12.5837 15.5458 13.538 15.0358 14.287 14.2868C15.036 13.5378 15.5461 12.5835 15.7527 11.5447C15.9594 10.5058 15.8533 9.42894 15.448 8.45034C15.0426 7.47174 14.3562 6.63531 13.4754 6.04684C12.5947 5.45836 11.5592 5.14426 10.5 5.14426V5.14426ZM10.5 13.9929C10.0389 14.0015 9.58086 13.9169 9.1532 13.7444C8.72553 13.5719 8.33705 13.3149 8.01096 12.9888C7.68488 12.6627 7.42789 12.2743 7.25536 11.8466C7.08283 11.419 6.99831 10.9609 7.00684 10.4998C6.99831 10.0388 7.08283 9.58071 7.25536 9.15305C7.42789 8.72539 7.68488 8.33691 8.01096 8.01083C8.33705 7.68475 8.72553 7.42777 9.1532 7.25524C9.58086 7.08272 10.0389 6.9982 10.5 7.00673C10.9611 6.9982 11.4191 7.08272 11.8468 7.25524C12.2745 7.42777 12.663 7.68475 12.989 8.01083C13.3151 8.33691 13.5721 8.72539 13.7446 9.15305C13.9172 9.58071 14.0017 10.0388 13.9932 10.4998C14.0017 10.9609 13.9172 11.419 13.7446 11.8466C13.5721 12.2743 13.3151 12.6627 12.989 12.9888C12.663 13.3149 12.2745 13.5719 11.8468 13.7444C11.4191 13.9169 10.9611 14.0015 10.5 13.9929V13.9929ZM16.0888 3.6315C15.8354 3.6315 15.5878 3.70662 15.3771 3.84738C15.1665 3.98813 15.0023 4.18818 14.9053 4.42224C14.8084 4.6563 14.783 4.91386 14.8325 5.16233C14.8819 5.41081 15.0039 5.63905 15.183 5.81819C15.3622 5.99734 15.5904 6.11933 15.8389 6.16876C16.0874 6.21818 16.3449 6.19282 16.579 6.09586C16.8131 5.99891 17.0131 5.83473 17.1539 5.62408C17.2946 5.41344 17.3698 5.16578 17.3698 4.91243C17.367 4.57356 17.2312 4.24933 16.9915 4.0097C16.7519 3.77007 16.4277 3.63424 16.0888 3.6315" fill="#0E2368"/>
</svg>
